<svg width="174" height="50" viewBox="0 0 174 50" fill="none" xmlns="http://www.w3.org/2000/svg">
<path d="M24.5244 0C32.9243 1.53422e-05 40.3367 4.2235 44.7568 10.6621C41.6784 13.3565 39.2692 16.7197 37.7012 20.4609C35.9664 14.8308 30.7238 10.7393 24.5244 10.7393C16.9104 10.7395 10.7385 16.9114 10.7383 24.5254C10.7385 32.1394 16.9104 38.3123 24.5244 38.3125C29.1213 38.3125 33.1913 36.0612 35.6963 32.6025C35.8097 34.2113 36.071 35.8328 36.4902 37.4502C37.1138 39.8556 38.0465 42.0987 39.2344 44.1484C35.1362 47.225 30.0433 49.0488 24.5244 49.0488C10.98 49.0487 0.000185374 38.0688 0 24.5244C1.79624e-07 10.9799 10.9799 0.000160817 24.5244 0ZM46.3164 13.2656C48.0621 16.6374 49.0498 20.4655 49.0498 24.5244C49.0498 28.0006 48.3238 31.3067 47.0195 34.3027C46.7171 33.9867 46.4075 33.6796 46.0957 33.3809C43.477 30.8715 41.8468 27.3389 41.8467 23.4258C41.8468 19.4043 43.5696 15.7857 46.3164 13.2656Z" fill="url(#paint0_linear_40009161_11723)"/>
<path d="M75.8301 35.2938L74.5934 30.1659H67.6255L66.3587 35.2938H61.0498L67.9272 13.6662H74.2013L81.1088 35.2938H75.8301ZM72.12 21.3279C71.9993 20.9056 71.8787 20.4632 71.758 20.0007C71.6373 19.5381 71.5167 19.0555 71.396 18.5528C71.2955 18.0501 71.1949 17.5373 71.0944 17.0144C71.014 17.5373 70.9134 18.0601 70.7928 18.5829C70.6721 19.0857 70.5514 19.5683 70.4308 20.0308C70.3302 20.4933 70.2196 20.9257 70.099 21.3279L68.7114 26.3351H73.5377L72.12 21.3279Z" fill="url(#paint1_linear_40009161_11723)"/>
<path d="M102.104 35.2938H95.7998L87.6857 19.0052H87.5651C87.5852 19.508 87.6053 20.0208 87.6254 20.5436C87.6455 21.0463 87.6656 21.5591 87.6857 22.082C87.726 22.5847 87.7561 23.0975 87.7762 23.6203C87.7963 24.1231 87.8164 24.6358 87.8366 25.1587V35.2938H83.493V13.7567H89.767L97.851 29.8944H97.9415C97.9415 29.3917 97.9314 28.899 97.9113 28.4164C97.8912 27.9137 97.861 27.421 97.8208 26.9384C97.8007 26.4356 97.7806 25.9429 97.7605 25.4603C97.7404 24.9576 97.7303 24.4549 97.7303 23.9521V13.7567H102.104V35.2938Z" fill="url(#paint2_linear_40009161_11723)"/>
<path d="M124.166 35.2938H118.555L114.212 27.1495L109.898 35.2938H104.529L111.256 24.1934L104.951 13.7567H110.351L114.362 21.5088L118.254 13.7567H123.683L117.288 24.4348L124.166 35.2938Z" fill="url(#paint3_linear_40009161_11723)"/>
<path d="M139.137 29.3213C139.137 30.5882 138.855 31.6942 138.292 32.6393C137.729 33.5845 136.874 34.3185 135.728 34.8413C134.602 35.344 133.174 35.5954 131.445 35.5954C130.641 35.5954 129.896 35.5451 129.213 35.4446C128.529 35.344 127.886 35.2033 127.282 35.0223C126.679 34.8212 126.076 34.5799 125.472 34.2984V30.0452C126.498 30.4876 127.544 30.8999 128.609 31.282C129.695 31.6439 130.721 31.8249 131.686 31.8249C132.31 31.8249 132.812 31.7244 133.194 31.5233C133.576 31.3222 133.858 31.0507 134.039 30.7088C134.22 30.367 134.31 29.9749 134.31 29.5325C134.31 28.9895 134.16 28.527 133.858 28.1449C133.576 27.7628 133.154 27.4109 132.591 27.0892C132.028 26.7473 131.334 26.4055 130.51 26.0636C129.907 25.8022 129.313 25.5005 128.73 25.1587C128.147 24.8168 127.624 24.4046 127.162 23.922C126.699 23.4192 126.327 22.816 126.046 22.1121C125.784 21.4083 125.653 20.5637 125.653 19.5784C125.653 18.2914 125.955 17.1954 126.558 16.2905C127.162 15.3655 128.006 14.6616 129.092 14.179C130.178 13.6964 131.445 13.4551 132.893 13.4551C134.079 13.4551 135.175 13.5858 136.181 13.8472C137.206 14.1086 138.182 14.4807 139.107 14.9633L137.568 18.5226C136.683 18.1204 135.839 17.8087 135.034 17.5875C134.25 17.3663 133.486 17.2557 132.742 17.2557C132.239 17.2557 131.817 17.3462 131.475 17.5272C131.133 17.7082 130.872 17.9596 130.691 18.2813C130.53 18.6031 130.449 18.9851 130.449 19.4275C130.449 19.9303 130.58 20.3626 130.842 20.7246C131.123 21.0664 131.555 21.4083 132.139 21.7502C132.722 22.0719 133.466 22.464 134.371 22.9266C135.376 23.4293 136.231 23.9622 136.935 24.5252C137.659 25.0682 138.202 25.7217 138.564 26.4859C138.946 27.2501 139.137 28.1952 139.137 29.3213Z" fill="url(#paint4_linear_40009161_11723)"/>
<path d="M149.311 22.6249L153.172 13.7567H158.42L151.724 26.9082V35.2938H146.868V27.059L140.171 13.7567H145.48L149.311 22.6249Z" fill="url(#paint5_linear_40009161_11723)"/>
<path d="M173.366 29.3213C173.366 30.5882 173.084 31.6942 172.521 32.6393C171.958 33.5845 171.103 34.3185 169.957 34.8413C168.831 35.344 167.403 35.5954 165.674 35.5954C164.87 35.5954 164.125 35.5451 163.442 35.4446C162.758 35.344 162.115 35.2033 161.511 35.0223C160.908 34.8212 160.305 34.5799 159.701 34.2984V30.0452C160.727 30.4876 161.773 30.8999 162.838 31.282C163.924 31.6439 164.95 31.8249 165.915 31.8249C166.539 31.8249 167.041 31.7244 167.423 31.5233C167.805 31.3222 168.087 31.0507 168.268 30.7088C168.449 30.367 168.539 29.9749 168.539 29.5325C168.539 28.9895 168.389 28.527 168.087 28.1449C167.805 27.7628 167.383 27.4109 166.82 27.0892C166.257 26.7473 165.563 26.4055 164.739 26.0636C164.136 25.8022 163.542 25.5005 162.959 25.1587C162.376 24.8168 161.853 24.4046 161.391 23.922C160.928 23.4192 160.556 22.816 160.275 22.1121C160.013 21.4083 159.882 20.5637 159.882 19.5784C159.882 18.2914 160.184 17.1954 160.787 16.2905C161.391 15.3655 162.235 14.6616 163.321 14.179C164.407 13.6964 165.674 13.4551 167.122 13.4551C168.308 13.4551 169.404 13.5858 170.41 13.8472C171.435 14.1086 172.41 14.4807 173.336 14.9633L171.797 18.5226C170.912 18.1204 170.068 17.8087 169.263 17.5875C168.479 17.3663 167.715 17.2557 166.971 17.2557C166.468 17.2557 166.046 17.3462 165.704 17.5272C165.362 17.7082 165.101 17.9596 164.92 18.2813C164.759 18.6031 164.678 18.9851 164.678 19.4275C164.678 19.9303 164.809 20.3626 165.071 20.7246C165.352 21.0664 165.784 21.4083 166.368 21.7502C166.951 22.0719 167.695 22.464 168.6 22.9266C169.605 23.4293 170.46 23.9622 171.164 24.5252C171.888 25.0682 172.431 25.7217 172.793 26.4859C173.175 27.2501 173.366 28.1952 173.366 29.3213Z" fill="url(#paint6_linear_40009161_11723)"/>
<defs>
<linearGradient id="paint0_linear_40009161_11723" x1="64.5" y1="26" x2="1.5" y2="29" gradientUnits="userSpaceOnUse">
<stop stop-color="#0E39FF"/>
<stop offset="0.461538" stop-color="#04C1FC"/>
<stop offset="1" stop-color="#31EEDD"/>
</linearGradient>
<linearGradient id="paint1_linear_40009161_11723" x1="129.725" y1="40.7949" x2="122.725" y2="13.2949" gradientUnits="userSpaceOnUse">
<stop stop-color="#3DDED2"/>
<stop offset="0.538462" stop-color="#4C49FF"/>
<stop offset="1" stop-color="#00B5ED"/>
</linearGradient>
<linearGradient id="paint2_linear_40009161_11723" x1="129.725" y1="40.7949" x2="122.725" y2="13.2949" gradientUnits="userSpaceOnUse">
<stop stop-color="#3DDED2"/>
<stop offset="0.538462" stop-color="#4C49FF"/>
<stop offset="1" stop-color="#00B5ED"/>
</linearGradient>
<linearGradient id="paint3_linear_40009161_11723" x1="129.725" y1="40.7949" x2="122.725" y2="13.2949" gradientUnits="userSpaceOnUse">
<stop stop-color="#3DDED2"/>
<stop offset="0.538462" stop-color="#4C49FF"/>
<stop offset="1" stop-color="#00B5ED"/>
</linearGradient>
<linearGradient id="paint4_linear_40009161_11723" x1="129.725" y1="40.7949" x2="122.725" y2="13.2949" gradientUnits="userSpaceOnUse">
<stop stop-color="#3DDED2"/>
<stop offset="0.538462" stop-color="#4C49FF"/>
<stop offset="1" stop-color="#00B5ED"/>
</linearGradient>
<linearGradient id="paint5_linear_40009161_11723" x1="129.725" y1="40.7949" x2="122.725" y2="13.2949" gradientUnits="userSpaceOnUse">
<stop stop-color="#3DDED2"/>
<stop offset="0.538462" stop-color="#4C49FF"/>
<stop offset="1" stop-color="#00B5ED"/>
</linearGradient>
<linearGradient id="paint6_linear_40009161_11723" x1="129.725" y1="40.7949" x2="122.725" y2="13.2949" gradientUnits="userSpaceOnUse">
<stop stop-color="#3DDED2"/>
<stop offset="0.538462" stop-color="#4C49FF"/>
<stop offset="1" stop-color="#00B5ED"/>
</linearGradient>
</defs>
</svg>
